<svg xmlns="http://www.w3.org/2000/svg" width="1920" height="1080" viewBox="0 0 1920 1080" fill="none"><rect width="1920" height="1080" fill="white"></rect><rect x="1615.9" y="215.65" width="176.593" height="527.231" fill="#3A54E7"></rect><path d="M1442.82 215.804H1268.5L1529.45 743.246H1706.94L1442.82 215.804Z" fill="#3A54E7"></path><path d="M1355.12 684.021L1179.28 306.854V215.65H1355.12V684.021Z" fill="#3A54E7"></path><rect x="301.989" y="218.107" width="174.345" height="523.458" fill="#3A54E7"></rect><rect x="127.504" y="215.65" width="523.456" height="175.446" fill="#3A54E7"></rect><path d="M1002.77 215.804H828.451L1089.4 743.246H1266.89L1002.77 215.804Z" fill="#E73A51"></path><path d="M826.807 501.55H969.69L1032.97 629.452H826.807V741.564H650.96V391.097H826.807V501.55Z" fill="#3A54E7"></path><path d="M1754.03 872.184V905.6H1742.76V814.937H1754.03V854.051L1778.64 814.937H1790.94L1765.94 854.958L1792.5 905.6H1779.54L1758.95 864.801L1754.03 872.184Z" fill="#0F174E"></path><path d="M1676.18 868.039V905.6H1664.91V814.937H1689.26C1696.6 814.937 1702.13 816.577 1705.84 819.859C1709.64 823.053 1711.54 828.148 1711.54 835.142V847.576C1711.54 857.333 1707.66 863.42 1699.88 865.838L1717.89 905.6H1705.58L1688.88 868.039H1676.18ZM1700.27 833.976C1700.27 830.695 1699.5 828.32 1697.94 826.853C1696.47 825.385 1694.1 824.651 1690.82 824.651H1676.18V858.326H1690.82C1694.1 858.326 1696.47 857.592 1697.94 856.124C1699.5 854.57 1700.27 852.152 1700.27 848.871V833.976Z" fill="#0F174E"></path><path d="M1640.3 883.582C1640.3 890.921 1638.27 896.447 1634.21 900.16C1630.24 903.787 1624.5 905.6 1616.99 905.6H1611.81C1604.3 905.6 1598.51 903.787 1594.45 900.16C1590.48 896.447 1588.49 890.921 1588.49 883.582V836.955C1588.49 829.616 1590.48 824.133 1594.45 820.506C1598.51 816.793 1604.3 814.937 1611.81 814.937H1616.99C1624.5 814.937 1630.24 816.793 1634.21 820.506C1638.27 824.133 1640.3 829.616 1640.3 836.955V883.582ZM1629.03 834.494C1629.03 831.817 1628.04 829.529 1626.05 827.63C1624.07 825.73 1621.48 824.78 1618.28 824.78H1610.51C1607.32 824.78 1604.73 825.73 1602.74 827.63C1600.75 829.529 1599.76 831.817 1599.76 834.494V886.043C1599.76 888.719 1600.75 891.007 1602.74 892.907C1604.73 894.807 1607.32 895.756 1610.51 895.756H1618.28C1621.48 895.756 1624.07 894.807 1626.05 892.907C1628.04 891.007 1629.03 888.719 1629.03 886.043V834.494Z" fill="#0F174E"></path><path d="M1537.72 868.817L1529.56 905.6H1514.02L1509.61 814.937H1519.2L1523.08 895.886L1533.83 853.145H1541.86L1552.87 895.886L1556.89 814.937H1565.82L1561.42 905.6H1545.1L1537.72 868.817Z" fill="#0F174E"></path><path d="M1455.86 905.6V824.78H1435.26V814.937H1487.72V824.78H1467.12V905.6H1455.86Z" fill="#0F174E"></path><path d="M1406.76 814.937V824.392H1374.77V854.051H1403.53V863.506H1374.77V896.145H1406.76V905.6H1363.51V814.937H1406.76Z" fill="#0F174E"></path><path d="M1294.47 905.6H1283.98V814.937H1302.37L1322.83 896.015V814.937H1333.32V905.6H1314.8L1294.47 824.521V905.6Z" fill="#0F174E"></path><path d="M1141.62 905.6H1131.13V814.937H1149.53L1169.99 896.015V814.937H1180.48V905.6H1161.96L1141.62 824.521V905.6Z" fill="#0F174E"></path><path d="M1105.35 883.582C1105.35 890.921 1103.33 896.447 1099.27 900.16C1095.3 903.787 1089.55 905.6 1082.04 905.6H1076.86C1069.35 905.6 1063.56 903.787 1059.51 900.16C1055.53 896.447 1053.55 890.921 1053.55 883.582V836.955C1053.55 829.616 1055.53 824.133 1059.51 820.506C1063.56 816.793 1069.35 814.937 1076.86 814.937H1082.04C1089.55 814.937 1095.3 816.793 1099.27 820.506C1103.33 824.133 1105.35 829.616 1105.35 836.955V883.582ZM1094.09 834.494C1094.09 831.817 1093.09 829.529 1091.11 827.63C1089.12 825.73 1086.53 824.78 1083.34 824.78H1075.57C1072.37 824.78 1069.78 825.73 1067.79 827.63C1065.81 829.529 1064.82 831.817 1064.82 834.494V886.043C1064.82 888.719 1065.81 891.007 1067.79 892.907C1069.78 894.807 1072.37 895.756 1075.57 895.756H1083.34C1086.53 895.756 1089.12 894.807 1091.11 892.907C1093.09 891.007 1094.09 888.719 1094.09 886.043V834.494Z" fill="#0F174E"></path><path d="M997.331 896.145V824.392H985.675V814.937H1020.26V824.392H1008.6V896.145H1020.26V905.6H985.675V896.145H997.331Z" fill="#0F174E"></path><path d="M920.91 905.6V824.78H900.317V814.937H952.772V824.78H932.178V905.6H920.91Z" fill="#0F174E"></path><path d="M837.625 882.675L832.574 905.6H821.046L842.935 814.937H857.83L879.33 905.6H867.803L862.881 882.675H837.625ZM860.809 872.961L850.188 823.485L839.697 872.961H860.809Z" fill="#0F174E"></path><path d="M778.948 875.163H768.198L755.505 824.262V905.6H745.662V814.937H763.665L774.026 861.304L784.517 814.937H802.002V905.6H791.9V824.262L778.948 875.163Z" fill="#0F174E"></path><path d="M723.25 883.582C723.25 890.921 721.221 896.447 717.163 900.16C713.191 903.787 707.449 905.6 699.937 905.6H694.756C687.244 905.6 681.459 903.787 677.4 900.16C673.428 896.447 671.443 890.921 671.443 883.582V836.955C671.443 829.616 673.428 824.133 677.4 820.506C681.459 816.793 687.244 814.937 694.756 814.937H699.937C707.449 814.937 713.191 816.793 717.163 820.506C721.221 824.133 723.25 829.616 723.25 836.955V883.582ZM711.982 834.494C711.982 831.817 710.989 829.529 709.003 827.63C707.017 825.73 704.427 824.78 701.232 824.78H693.461C690.266 824.78 687.676 825.73 685.69 827.63C683.704 829.529 682.711 831.817 682.711 834.494V886.043C682.711 888.719 683.704 891.007 685.69 892.907C687.676 894.807 690.266 895.756 693.461 895.756H701.232C704.427 895.756 707.017 894.807 709.003 892.907C710.989 891.007 711.982 888.719 711.982 886.043V834.494Z" fill="#0F174E"></path><path d="M615.226 905.6V824.78H594.633V814.937H647.088V824.78H626.495V905.6H615.226Z" fill="#0F174E"></path><path d="M569.372 883.582C569.372 890.921 567.343 896.447 563.285 900.16C559.313 903.787 553.571 905.6 546.059 905.6H542.821C535.309 905.6 529.523 903.787 525.465 900.16C521.493 896.447 519.507 890.921 519.507 883.582V814.937H530.775V886.043C530.775 888.719 531.768 891.007 533.754 892.907C535.74 894.807 538.331 895.756 541.525 895.756H547.354C550.549 895.756 553.139 894.807 555.125 892.907C557.111 891.007 558.104 888.719 558.104 886.043V814.937H569.372V883.582Z" fill="#0F174E"></path><path d="M455.52 882.675L450.469 905.6H438.942L460.83 814.937H475.725L497.225 905.6H485.698L480.776 882.675H455.52ZM478.704 872.961L468.083 823.485L457.592 872.961H478.704Z" fill="#0F174E"></path><path d="M336.871 814.937V824.392H304.88V854.051H333.633V863.506H304.88V896.145H336.871V905.6H293.612V814.937H336.871Z" fill="#0F174E"></path><path d="M225.48 863.895V905.6H214.212V814.937H225.48V854.311H252.161V814.937H263.429V905.6H252.161V863.895H225.48Z" fill="#0F174E"></path><path d="M156.701 905.6V824.78H136.107V814.937H188.562V824.78H167.969V905.6H156.701Z" fill="#0F174E"></path></svg>